<svg xmlns="http://www.w3.org/2000/svg" width="256" height="256" viewBox="0 0 100 100"><rect width="100" height="100" rx="20" fill="#074da4"></rect><path d="M13.71 50.74L13.62 49.59Q15.14 49.42 16.57 49.20Q18.00 48.98 19.34 48.69L19.34 48.69Q19.45 45.99 20.24 43.51Q21.03 41.02 22.30 38.88Q23.58 36.74 25.23 34.99Q26.87 33.25 28.69 32.00Q30.50 30.76 32.38 30.08Q34.26 29.40 35.99 29.40L35.99 29.40Q38.32 29.40 39.54 30.38Q40.76 31.36 40.76 33.29L40.76 33.29Q40.76 35.55 39.44 37.88Q38.12 40.21 35.70 42.35Q33.27 44.50 29.83 46.29Q26.39 48.08 22.15 49.24L22.15 49.24Q22.15 50.63 22.49 51.89Q22.83 53.15 23.51 54.13Q24.19 55.11 25.19 55.68Q26.19 56.25 27.51 56.25L27.51 56.25Q29.05 56.25 30.72 55.53Q32.39 54.80 33.99 53.68Q35.60 52.56 37.00 51.19Q38.41 49.81 39.44 48.49L39.44 48.49Q41.38 46.01 42.56 44.78Q43.75 43.55 43.84 43.46L43.84 43.46L44.63 44.30Q42.61 46.25 41.06 48.47Q39.51 50.69 38.21 52.97Q36.92 55.24 35.77 57.50Q34.63 59.77 33.42 61.83Q32.21 63.90 30.84 65.67Q29.47 67.44 27.71 68.73Q25.95 70.03 23.72 70.76Q21.49 71.50 18.57 71.50L18.57 71.50Q15.84 71.50 13.66 70.85Q11.47 70.20 9.93 69.05Q8.39 67.90 7.57 66.33Q6.75 64.75 6.75 62.91L6.75 62.91Q6.75 60.95 7.42 59.54Q8.09 58.12 9.15 57.21Q10.22 56.30 11.57 55.87Q12.92 55.44 14.28 55.44L14.28 55.44Q15.95 55.44 17.14 55.97Q18.33 56.49 19.18 57.22L19.18 57.22L18.55 58.12Q18.28 57.90 17.92 57.64Q17.56 57.37 17.08 57.14Q16.61 56.91 16.05 56.76Q15.49 56.60 14.85 56.60L14.85 56.60Q13.60 56.60 12.57 57.06Q11.54 57.53 10.80 58.37Q10.06 59.22 9.67 60.37Q9.27 61.52 9.27 62.91L9.27 62.91Q9.27 64.73 10.05 66.13Q10.83 67.52 12.10 68.46Q13.36 69.39 14.95 69.87Q16.55 70.36 18.19 70.36L18.19 70.36Q20.68 70.36 22.51 69.64Q24.35 68.93 25.79 67.72Q27.23 66.51 28.38 64.89Q29.53 63.26 30.63 61.43Q31.73 59.59 32.89 57.67Q34.06 55.75 35.55 53.90L35.55 53.90Q33.16 55.88 30.86 56.92Q28.57 57.97 26.41 57.97L26.41 57.97Q25.07 57.97 23.82 57.47Q22.57 56.98 21.59 55.98Q20.61 54.98 20.00 53.47Q19.38 51.97 19.32 49.92L19.32 49.92Q17.97 50.21 16.57 50.41Q15.16 50.60 13.71 50.74L13.71 50.74ZM36.70 30.65L36.70 30.65Q35.00 30.65 33.31 31.31Q31.62 31.97 30.07 33.16Q28.52 34.34 27.16 35.97Q25.80 37.60 24.75 39.52Q23.71 41.44 23.04 43.59Q22.37 45.75 22.19 47.97L22.19 47.97Q26.65 46.72 29.93 44.88Q33.20 43.05 35.36 41.02Q37.51 39.00 38.56 36.98Q39.62 34.96 39.62 33.29L39.62 33.29Q39.62 31.99 38.88 31.32Q38.15 30.65 36.70 30.65ZM80.99 50.34L81.04 49.20Q81.34 49.24 81.89 49.34Q82.44 49.44 83.09 49.68Q83.74 49.92 84.41 50.35Q85.08 50.78 85.63 51.51Q86.18 52.23 86.52 53.28Q86.86 54.34 86.86 55.81L86.86 55.81Q86.86 57.42 86.27 58.95Q85.67 60.49 84.62 61.69Q83.56 62.89 82.11 63.62Q80.66 64.36 78.97 64.36L78.97 64.36Q77.21 64.36 75.93 63.82Q74.64 63.28 73.82 62.30Q72.99 61.33 72.60 59.95Q72.20 58.58 72.20 56.91L72.20 56.91Q72.20 55.13 72.80 52.32Q73.39 49.51 74.99 45.86L74.99 45.86Q72.47 46.89 70.00 47.71Q67.52 48.54 65.06 49.26L65.06 49.26Q63.77 51.26 62.18 53.19Q60.60 55.11 58.88 56.80Q57.15 58.49 55.33 59.91Q53.50 61.33 51.72 62.36Q49.95 63.39 48.26 63.96Q46.58 64.53 45.13 64.53L45.13 64.53Q43.84 64.53 43.02 64.16Q42.21 63.79 41.75 63.25Q41.29 62.71 41.11 62.07Q40.94 61.44 40.94 60.91L40.94 60.91Q40.94 60.25 41.25 59.45Q41.57 58.65 42.23 57.81Q42.89 56.98 43.90 56.17Q44.91 55.37 46.28 54.67L46.28 54.67Q48.39 53.59 50.47 52.74Q52.56 51.88 54.61 51.16Q56.67 50.45 58.69 49.84Q60.71 49.22 62.73 48.63L62.73 48.63Q63.81 46.74 64.72 44.79Q65.63 42.85 66.30 41.00Q66.97 39.16 67.36 37.48Q67.74 35.79 67.74 34.41L67.74 34.41Q67.74 33.36 67.40 32.48Q67.06 31.60 66.44 30.97Q65.81 30.35 64.91 29.99Q64.01 29.64 62.89 29.64L62.89 29.64Q60.82 29.64 58.94 30.14Q57.06 30.63 55.44 31.47Q53.81 32.30 52.50 33.42Q51.20 34.54 50.26 35.79Q49.33 37.05 48.82 38.35Q48.32 39.66 48.32 40.89L48.32 40.89Q48.32 42.12 48.84 42.92Q49.35 43.73 50.14 44.20Q50.93 44.67 51.85 44.86Q52.76 45.05 53.55 45.05L53.55 45.05Q54.45 45.05 55.27 44.89Q56.10 44.74 56.72 44.56Q57.35 44.39 57.73 44.22Q58.12 44.06 58.12 44.06L58.12 44.06L58.60 45.11Q58.49 45.18 57.98 45.36Q57.46 45.55 56.62 45.77Q55.79 45.99 54.68 46.15Q53.57 46.32 52.27 46.32L52.27 46.32Q50.93 46.32 49.74 46.01Q48.54 45.70 47.65 45.05Q46.76 44.39 46.24 43.34Q45.73 42.30 45.73 40.80L45.73 40.80Q45.73 39.11 46.51 37.55Q47.29 35.99 48.60 34.62Q49.92 33.25 51.65 32.13Q53.37 31.00 55.27 30.19Q57.17 29.38 59.12 28.94Q61.06 28.50 62.82 28.50L62.82 28.50Q64.43 28.50 65.75 28.94Q67.08 29.38 68.05 30.25Q69.02 31.11 69.56 32.41Q70.09 33.71 70.09 35.42L70.09 35.42Q70.09 36.87 69.74 38.52Q69.39 40.17 68.82 41.79Q68.25 43.42 67.52 44.94Q66.80 46.45 66.03 47.66L66.03 47.66Q68.49 46.93 70.89 46.13Q73.28 45.33 75.72 44.28L75.72 44.28Q78.16 39.53 80.36 36.46Q82.55 33.40 84.43 31.63Q86.31 29.86 87.85 29.18Q89.39 28.50 90.51 28.50L90.51 28.50Q91.80 28.50 92.53 29.20Q93.25 29.91 93.25 31.16L93.25 31.16Q93.25 32.59 92.19 34.20Q91.12 35.82 89.30 37.33L89.30 37.33Q86.57 39.60 83.89 41.29Q81.21 42.98 78.49 44.30L78.49 44.30Q77.24 46.96 76.42 49.09Q75.61 51.22 75.14 52.91Q74.66 54.60 74.47 55.92Q74.27 57.24 74.27 58.25L74.27 58.25Q74.27 59.53 74.62 60.46Q74.97 61.39 75.60 62.01Q76.22 62.62 77.08 62.92Q77.94 63.22 78.97 63.22L78.97 63.22Q80.33 63.22 81.55 62.63Q82.77 62.05 83.70 61.04Q84.62 60.03 85.16 58.68Q85.69 57.33 85.69 55.79L85.69 55.79Q85.69 54.47 85.38 53.55Q85.06 52.63 84.56 52.02Q84.07 51.42 83.48 51.08Q82.88 50.74 82.37 50.57Q81.85 50.41 81.46 50.37Q81.08 50.34 80.99 50.34L80.99 50.34ZM46.12 62.97L46.12 62.97Q47.92 62.97 49.95 62.01Q51.97 61.04 54.02 59.34Q56.08 57.64 58.06 55.31Q60.05 52.98 61.77 50.25L61.77 50.25L60.40 50.65Q59.00 51.07 57.22 51.67Q55.44 52.27 53.59 53.04Q51.75 53.81 49.98 54.72Q48.21 55.64 46.84 56.67Q45.46 57.70 44.63 58.85Q43.79 60.01 43.79 61.26L43.79 61.26Q43.79 62.10 44.44 62.54Q45.09 62.97 46.12 62.97ZM79.30 42.58L79.30 42.58Q81.61 41.40 83.91 39.89Q86.22 38.39 88.59 36.43L88.59 36.43Q89.56 35.64 90.23 34.87Q90.90 34.10 91.32 33.42Q91.74 32.74 91.92 32.16Q92.11 31.58 92.11 31.14L92.11 31.14Q92.11 30.50 91.73 30.06Q91.34 29.62 90.51 29.62L90.51 29.62Q89.61 29.62 88.65 30.14Q87.69 30.65 86.71 31.56Q85.72 32.48 84.74 33.72Q83.76 34.96 82.82 36.40Q81.87 37.84 80.98 39.42Q80.09 41.00 79.30 42.58Z" fill="#fff"></path></svg>